#tb 0: 1/1200000
#media_type 0: video
#codec_id 0: rawvideo
#dimensions 0: 1024x768
#sar 0: 0/1
#tb 1: 1/1200000
#media_type 1: video
#codec_id 1: rawvideo
#dimensions 1: 1024x768
#sar 1: 0/1
0,          0,          0,        0,  1179648, 0x4a15620e
1,          0,          0,        0,  1179648, 0x5b752453
0,          1,          1,        0,  1179648, 0xb33277fe
1,          1,          1,        0,  1179648, 0xacf4376d
0,          2,          2,        0,  1179648, 0x97b969bd
1,          2,          2,        0,  1179648, 0xa9d6e75d
0,          3,          3,        0,  1179648, 0x3c6b7b81
1,          3,          3,        0,  1179648, 0x2142cc59
0,          4,          4,        0,  1179648, 0xdf83fe63
1,          4,          4,        0,  1179648, 0x838d4f0a
0,          5,          5,        0,  1179648, 0x93fc3bdf
1,          5,          5,        0,  1179648, 0x29bc71c2
0,          6,          6,        0,  1179648, 0x18f90aa3
1,          6,          6,        0,  1179648, 0x3b25ee18
0,          7,          7,        0,  1179648, 0x84c730c5
1,          7,          7,        0,  1179648, 0x60ecae5b
0,          8,          8,        0,  1179648, 0x7b49f2b1
1,          8,          8,        0,  1179648, 0x8c3c635e
0,          9,          9,        0,  1179648, 0x71f1b862
1,          9,          9,        0,  1179648, 0x16c2a6fc
0,         10,         10,        0,  1179648, 0x92be991a
1,         10,         10,        0,  1179648, 0x092d6378
0,         11,         11,        0,  1179648, 0xa948322d
1,         11,         11,        0,  1179648, 0x5d977eec
0,         12,         12,        0,  1179648, 0x54838c22
1,         12,         12,        0,  1179648, 0x66fc891e
0,         13,         13,        0,  1179648, 0xc2682668
1,         13,         13,        0,  1179648, 0x0b60bd06
0,         14,         14,        0,  1179648, 0x1fa22020
1,         14,         14,        0,  1179648, 0x201706e2
0,         15,         15,        0,  1179648, 0x3a686683
1,         15,         15,        0,  1179648, 0x9c59849c
0,         16,         16,        0,  1179648, 0x991431ab
1,         16,         16,        0,  1179648, 0xb495ba09
0,         17,         17,        0,  1179648, 0xd394e067
1,         17,         17,        0,  1179648, 0x1d1db0c6
0,         18,         18,        0,  1179648, 0xbe694632
1,         18,         18,        0,  1179648, 0x22beec67
0,         19,         19,        0,  1179648, 0x8a48c7a7
1,         19,         19,        0,  1179648, 0x3515ac62
0,         20,         20,        0,  1179648, 0x8d7e9e6d
1,         20,         20,        0,  1179648, 0x3b73015b
0,         21,         21,        0,  1179648, 0x14f28d47
1,         21,         21,        0,  1179648, 0x4e01fdb7
0,         22,         22,        0,  1179648, 0x1885631b
1,         22,         22,        0,  1179648, 0xca33f8de
0,         23,         23,        0,  1179648, 0x29c795f1
1,         23,         23,        0,  1179648, 0x925517c1
0,         24,         24,        0,  1179648, 0xee23fd91
1,         24,         24,        0,  1179648, 0x0894bf6a
0,         25,         25,        0,  1179648, 0xa57dce94
1,         25,         25,        0,  1179648, 0xebfe296d
0,         26,         26,        0,  1179648, 0x6c3b16d8
1,         26,         26,        0,  1179648, 0x62acb3e0
0,         27,         27,        0,  1179648, 0xbf5a112f
1,         27,         27,        0,  1179648, 0x72f6ae90
0,         28,         28,        0,  1179648, 0x5e7ce2a7
1,         28,         28,        0,  1179648, 0xb4c6bcbc
0,         29,         29,        0,  1179648, 0x0529ad59
1,         29,         29,        0,  1179648, 0x438c8160
0,         30,         30,        0,  1179648, 0xc94d561d
1,         30,         30,        0,  1179648, 0x1b3a02af
0,         31,         31,        0,  1179648, 0x7079bbc0
1,         31,         31,        0,  1179648, 0x6034d275
0,         32,         32,        0,  1179648, 0x6c8e1265
1,         32,         32,        0,  1179648, 0x9e688ee2
0,         33,         33,        0,  1179648, 0x5e1494ee
1,         33,         33,        0,  1179648, 0xe39cab5d
0,         34,         34,        0,  1179648, 0xe3654994
1,         34,         34,        0,  1179648, 0xeefe533b
0,         35,         35,        0,  1179648, 0x329510fa
1,         35,         35,        0,  1179648, 0x48ed2162
0,         36,         36,        0,  1179648, 0x92120a9f
1,         36,         36,        0,  1179648, 0xb0fb26b3
0,         37,         37,        0,  1179648, 0x6f279a56
1,         37,         37,        0,  1179648, 0xc4185523
0,         38,         38,        0,  1179648, 0xd2ad5c1d
1,         38,         38,        0,  1179648, 0x8124687d
0,         39,         39,        0,  1179648, 0xd7e5bbaa
1,         39,         39,        0,  1179648, 0x39f1b702
0,         40,         40,        0,  1179648, 0xb5628743
1,         40,         40,        0,  1179648, 0xee5802d7
0,         41,         41,        0,  1179648, 0x2760515e
1,         41,         41,        0,  1179648, 0xdeac4fbd
0,         42,         42,        0,  1179648, 0x11a2f57a
1,         42,         42,        0,  1179648, 0xb1c7977f
0,         43,         43,        0,  1179648, 0x2c47dd8f
1,         43,         43,        0,  1179648, 0xaaaddace
0,         44,         44,        0,  1179648, 0x890fe8c2
1,         44,         44,        0,  1179648, 0x7ff8e81e
0,         45,         45,        0,  1179648, 0x65e9f9ac
1,         45,         45,        0,  1179648, 0xf9b1b99c
0,         46,         46,        0,  1179648, 0x3e4fa8d9
1,         46,         46,        0,  1179648, 0xfc3659e6
0,         47,         47,        0,  1179648, 0x356e13ee
1,         47,         47,        0,  1179648, 0xff8bfa3f
